<svg id="Layer_1" data-name="Layer 1" xmlns="http://www.w3.org/2000/svg" viewBox="0 0 30 47.14"><defs><style>.cls-1{fill:#fff;}.cls-2{fill:#77cee3;}</style></defs><path class="cls-1" d="M30,19.64V46.27a.87.87,0,0,1-.87.87H25.66a.87.87,0,0,1-.67-.31L15,34.93,5,46.83a.87.87,0,0,1-.67.31H.87A.87.87,0,0,1,0,46.27V19.64a.87.87,0,0,1,.87-.87h3.9a.87.87,0,0,1,.87.87V37.3L14.33,27a.87.87,0,0,1,1.34,0L24.36,37.3V19.64a.87.87,0,0,1,.87-.87h3.9A.87.87,0,0,1,30,19.64Z"/><path class="cls-2" d="M23.93,8.85,18.34,6.38,15.43.27a.48.48,0,0,0-.86,0L11.66,6.38,6.07,8.85a.47.47,0,0,0,0,.87l5.59,2.47,2.91,6.11a.48.48,0,0,0,.86,0l2.91-6.11,5.59-2.47A.47.47,0,0,0,23.93,8.85Z"/></svg>